# xmcd CD database file
#
# Track frame offsets:
#	150
#	13650
#	26860
#	37622
#	50470
#	65640
#	87590
#	105662
#	120595
#	135720
#	150540
#	163980
#	179132
#	195492
#	211355
#	224577
#
# Disc length: 3217 seconds
#
# Revision: 1
# Processed by: cddbd v1.4PL0 Copyright (c) Steve Scherf et al.
# Submitted via: CDex 1.50
#
DISCID=ea0c8f10
DTITLE=Ben E. King - The Best Of Ben E. King
DYEAR=1987
DGENRE=Blues
TTITLE0=Stand by Me
TTITLE1=Spanish Harlem
TTITLE2=I (Who Have Nothing)
TTITLE3=Don't Play That Song (You Lied)
TTITLE4=Supernatural Thing, Pt. 1
TTITLE5=All of Your Tomorrows
TTITLE6=She Does It Right
TTITLE7=Only You and I Know
TTITLE8=The Beginning of It All
TTITLE9=Love Is Gonna Get You
TTITLE10=Poison In My Mind
TTITLE11=I Guess It's Goodbye
TTITLE12=Take Me to the Pilot
TTITLE13=Travelin' Woman
TTITLE14=Love Is 
TTITLE15=Into the Mystic
EXTD=YEAR: 1987
EXTT0=
EXTT1=
EXTT2=
EXTT3=
EXTT4=
EXTT5=
EXTT6=
EXTT7=
EXTT8=
EXTT9=
EXTT10=
EXTT11=
EXTT12=
EXTT13=
EXTT14=
EXTT15=
PLAYORDER=
